<mxfile host="app.diagrams.net" agent="Mozilla/5.0 (Windows NT 10.0; Win64; x64) AppleWebKit/537.36 (KHTML, like Gecko) Chrome/140.0.0.0 Safari/537.36 Edg/140.0.0.0" version="28.2.3">
  <diagram name="Página-1" id="rBzB0JgsgX8n8v7QREox">
    <mxGraphModel dx="1418" dy="786" grid="1" gridSize="10" guides="1" tooltips="1" connect="1" arrows="1" fold="1" page="1" pageScale="1" pageWidth="827" pageHeight="1169" math="0" shadow="0">
      <root>
        <mxCell id="0" />
        <mxCell id="1" parent="0" />
        <mxCell id="4AYS6xG_xNgJ_aOAITUg-1" value="" style="ellipse;whiteSpace=wrap;html=1;" vertex="1" parent="1">
          <mxGeometry x="354" y="40" width="120" height="80" as="geometry" />
        </mxCell>
        <mxCell id="4AYS6xG_xNgJ_aOAITUg-2" value="" style="ellipse;whiteSpace=wrap;html=1;" vertex="1" parent="1">
          <mxGeometry x="354" y="950" width="120" height="80" as="geometry" />
        </mxCell>
        <mxCell id="4AYS6xG_xNgJ_aOAITUg-3" value="" style="endArrow=classic;html=1;rounded=0;" edge="1" parent="1" source="4AYS6xG_xNgJ_aOAITUg-1" target="4AYS6xG_xNgJ_aOAITUg-4">
          <mxGeometry width="50" height="50" relative="1" as="geometry">
            <mxPoint x="380" y="190" as="sourcePoint" />
            <mxPoint x="414" y="200" as="targetPoint" />
          </mxGeometry>
        </mxCell>
        <mxCell id="4AYS6xG_xNgJ_aOAITUg-4" value="escrever &quot;quantos numeros queres somar?&quot;" style="shape=parallelogram;perimeter=parallelogramPerimeter;whiteSpace=wrap;html=1;fixedSize=1;" vertex="1" parent="1">
          <mxGeometry x="354" y="180" width="120" height="60" as="geometry" />
        </mxCell>
        <mxCell id="4AYS6xG_xNgJ_aOAITUg-5" value="Ler N" style="shape=parallelogram;perimeter=parallelogramPerimeter;whiteSpace=wrap;html=1;fixedSize=1;" vertex="1" parent="1">
          <mxGeometry x="354" y="440" width="120" height="60" as="geometry" />
        </mxCell>
        <mxCell id="4AYS6xG_xNgJ_aOAITUg-7" value="Soma = 0&lt;span style=&quot;color: rgba(0, 0, 0, 0); font-family: monospace; font-size: 0px; text-align: start; text-wrap-mode: nowrap;&quot;&gt;%3CmxGraphModel%3E%3Croot%3E%3CmxCell%20id%3D%220%22%2F%3E%3CmxCell%20id%3D%221%22%20parent%3D%220%22%2F%3E%3CmxCell%20id%3D%222%22%20value%3D%22%22%20style%3D%22endArrow%3Dclassic%3Bhtml%3D1%3Brounded%3D0%3B%22%20edge%3D%221%22%20parent%3D%221%22%3E%3CmxGeometry%20width%3D%2250%22%20height%3D%2250%22%20relative%3D%221%22%20as%3D%22geometry%22%3E%3CmxPoint%20x%3D%22414%22%20y%3D%22450%22%20as%3D%22sourcePoint%22%2F%3E%3CmxPoint%20x%3D%22414%22%20y%3D%22500%22%20as%3D%22targetPoint%22%2F%3E%3C%2FmxGeometry%3E%3C%2FmxCell%3E%3C%2Froot%3E%3C%2FmxGraphModel%3E&lt;/span&gt;" style="shape=parallelogram;perimeter=parallelogramPerimeter;whiteSpace=wrap;html=1;fixedSize=1;size=-14;" vertex="1" parent="1">
          <mxGeometry x="354" y="290" width="120" height="60" as="geometry" />
        </mxCell>
        <mxCell id="4AYS6xG_xNgJ_aOAITUg-8" value="" style="endArrow=classic;html=1;rounded=0;" edge="1" parent="1" source="4AYS6xG_xNgJ_aOAITUg-4" target="4AYS6xG_xNgJ_aOAITUg-7">
          <mxGeometry width="50" height="50" relative="1" as="geometry">
            <mxPoint x="240" y="410" as="sourcePoint" />
            <mxPoint x="520" y="450" as="targetPoint" />
          </mxGeometry>
        </mxCell>
        <mxCell id="4AYS6xG_xNgJ_aOAITUg-16" value="" style="endArrow=classic;html=1;rounded=0;" edge="1" parent="1" source="4AYS6xG_xNgJ_aOAITUg-7" target="4AYS6xG_xNgJ_aOAITUg-5">
          <mxGeometry width="50" height="50" relative="1" as="geometry">
            <mxPoint x="280" y="300" as="sourcePoint" />
            <mxPoint x="414" y="280" as="targetPoint" />
          </mxGeometry>
        </mxCell>
        <mxCell id="4AYS6xG_xNgJ_aOAITUg-18" value="Quantos = Quantos-1&lt;div&gt;Soma=Soma+num&lt;/div&gt;" style="shape=parallelogram;perimeter=parallelogramPerimeter;whiteSpace=wrap;html=1;fixedSize=1;size=-14;" vertex="1" parent="1">
          <mxGeometry x="354" y="550" width="120" height="60" as="geometry" />
        </mxCell>
        <mxCell id="4AYS6xG_xNgJ_aOAITUg-19" value="" style="endArrow=classic;html=1;rounded=0;" edge="1" parent="1" source="4AYS6xG_xNgJ_aOAITUg-5" target="4AYS6xG_xNgJ_aOAITUg-18">
          <mxGeometry width="50" height="50" relative="1" as="geometry">
            <mxPoint x="300" y="510" as="sourcePoint" />
            <mxPoint x="350" y="460" as="targetPoint" />
          </mxGeometry>
        </mxCell>
        <mxCell id="4AYS6xG_xNgJ_aOAITUg-20" value="Quantos=0" style="rhombus;whiteSpace=wrap;html=1;" vertex="1" parent="1">
          <mxGeometry x="374" y="640" width="80" height="80" as="geometry" />
        </mxCell>
        <mxCell id="4AYS6xG_xNgJ_aOAITUg-21" value="Escrever&quot;A soma dos números que escreveste é:&quot;.Soma" style="shape=parallelogram;perimeter=parallelogramPerimeter;whiteSpace=wrap;html=1;fixedSize=1;" vertex="1" parent="1">
          <mxGeometry x="246" y="820" width="336" height="60" as="geometry" />
        </mxCell>
        <mxCell id="4AYS6xG_xNgJ_aOAITUg-22" value="" style="endArrow=classic;html=1;rounded=0;" edge="1" parent="1" source="4AYS6xG_xNgJ_aOAITUg-20" target="4AYS6xG_xNgJ_aOAITUg-21">
          <mxGeometry width="50" height="50" relative="1" as="geometry">
            <mxPoint x="320" y="770" as="sourcePoint" />
            <mxPoint x="370" y="720" as="targetPoint" />
          </mxGeometry>
        </mxCell>
        <mxCell id="4AYS6xG_xNgJ_aOAITUg-23" value="" style="endArrow=classic;html=1;rounded=0;" edge="1" parent="1" source="4AYS6xG_xNgJ_aOAITUg-21" target="4AYS6xG_xNgJ_aOAITUg-2">
          <mxGeometry width="50" height="50" relative="1" as="geometry">
            <mxPoint x="440" y="770" as="sourcePoint" />
            <mxPoint x="440" y="870" as="targetPoint" />
          </mxGeometry>
        </mxCell>
        <mxCell id="4AYS6xG_xNgJ_aOAITUg-24" value="" style="endArrow=classic;html=1;rounded=0;" edge="1" parent="1" source="4AYS6xG_xNgJ_aOAITUg-18" target="4AYS6xG_xNgJ_aOAITUg-20">
          <mxGeometry width="50" height="50" relative="1" as="geometry">
            <mxPoint x="440" y="830" as="sourcePoint" />
            <mxPoint x="440" y="930" as="targetPoint" />
          </mxGeometry>
        </mxCell>
      </root>
    </mxGraphModel>
  </diagram>
</mxfile>
